# xmcd
#
# Track frame offsets: 
#        150
#        5475
#        16726
#        30226
#        44851
#        67351
#        86757
#        94624
#        111227
#        122758
#        140759
#        161009
#        181259
#        199259
#        220582
#        240885
#        256634
#        281386
#
# Disc length: 4052 seconds
#
# Revision: 1
# Processed by: cddbd v1.5.2PL0 Copyright (c) Steve Scherf et al.
# Submitted via: ExactAudioCopyFreeDBPlugin 1.0
#
DISCID=f40fd212
DTITLE=Umek - Toolroom Knights [CD2]
DYEAR=2010
DGENRE=Techno
TTITLE0=Intro 2
TTITLE1=Uto Karem - Utopolys
TTITLE2=Gary Beck - Get Down
TTITLE3=Hertz and Subway Baby - Exterminine
TTITLE4=Mike Vale - Rising Up
TTITLE5=Umek vs Phntm - Dead Space
TTITLE6=Novi Sad (Uto Karem Remix)
TTITLE7=Austin Leeds - Leibowitz
TTITLE8=Jon Rundell - Flex
TTITLE9=Butch and Riva Starr - XTC (Riva Starr Cut) 
TTITLE10=Sarajevo
TTITLE11=Hertz - Red Ryder
TTITLE12=Christian Cambas - The Robospanker
TTITLE13=Phunk Investigation - Wall of Sound
TTITLE14=Just'n Toko - Let Me Dig
TTITLE15=Weekend Heroes - Fear Factor
TTITLE16=Christian Smith - The Price of Freedom
TTITLE17=Traumer - Rolling Life
EXTD=
EXTT0=
EXTT1=
EXTT2=
EXTT3=
EXTT4=
EXTT5=
EXTT6=
EXTT7=
EXTT8=
EXTT9=
EXTT10=
EXTT11=
EXTT12=
EXTT13=
EXTT14=
EXTT15=
EXTT16=
EXTT17=
PLAYORDER=
